<?xml version="1.0" standalone="no"?><!DOCTYPE svg PUBLIC "-//W3C//DTD SVG 1.1//EN" "http://www.w3.org/Graphics/SVG/1.1/DTD/svg11.dtd"><svg class="icon" width="200px" height="200.00px" viewBox="0 0 1024 1024" version="1.1" xmlns="http://www.w3.org/2000/svg"><path d="M512 870.4c-6.4 0-12.8-3.2-16-6.4-9.6-6.4-240-156.8-336-294.4-38.4-54.4-70.4-108.8-70.4-179.2 0-131.2 105.6-236.8 233.6-236.8 80 0 147.2 41.6 188.8 115.2 41.6-73.6 108.8-115.2 192-115.2 128 0 233.6 105.6 233.6 236.8 0 73.6-32 124.8-70.4 179.2-96 137.6-326.4 288-336 294.4-6.4 6.4-12.8 6.4-19.2 6.4zM323.2 217.6c-92.8 0-169.6 76.8-169.6 172.8 0 54.4 25.6 96 57.6 144C284.8 640 457.6 761.6 512 800c54.4-38.4 227.2-160 300.8-265.6 35.2-51.2 57.6-89.6 57.6-144 0-96-76.8-172.8-169.6-172.8-83.2 0-124.8 60.8-144 99.2-6.4 19.2-25.6 32-48 32-19.2 0-35.2-12.8-44.8-28.8v-3.2c-16-35.2-57.6-99.2-140.8-99.2z" /></svg>