<?xml version="1.0" standalone="no"?><!DOCTYPE svg PUBLIC "-//W3C//DTD SVG 1.1//EN" "http://www.w3.org/Graphics/SVG/1.1/DTD/svg11.dtd"><svg class="icon" width="200px" height="200.00px" viewBox="0 0 1024 1024" version="1.1" xmlns="http://www.w3.org/2000/svg"><path d="M512 627.2c-64 0-115.2-51.2-115.2-115.2s51.2-115.2 115.2-115.2 115.2 51.2 115.2 115.2-51.2 115.2-115.2 115.2z m0-166.4c-28.8 0-51.2 22.4-51.2 51.2s22.4 51.2 51.2 51.2 51.2-22.4 51.2-51.2-22.4-51.2-51.2-51.2zM512 803.2c-115.2 0-230.4-60.8-368-185.6-32-25.6-48-64-48-105.6 0-38.4 16-76.8 44.8-105.6 278.4-246.4 464-246.4 742.4 0 28.8 25.6 44.8 64 44.8 102.4 0 38.4-16 76.8-44.8 105.6-140.8 124.8-256 188.8-371.2 188.8z m0-518.4c-99.2 0-201.6 57.6-329.6 172.8-12.8 12.8-22.4 35.2-22.4 54.4 0 22.4 9.6 41.6 25.6 57.6 252.8 227.2 400 227.2 652.8-3.2 16-12.8 25.6-35.2 25.6-57.6s-9.6-41.6-25.6-57.6c-124.8-108.8-224-166.4-326.4-166.4z" /></svg>