<?xml version="1.0" standalone="no"?><!DOCTYPE svg PUBLIC "-//W3C//DTD SVG 1.1//EN" "http://www.w3.org/Graphics/SVG/1.1/DTD/svg11.dtd"><svg class="icon" width="200px" height="200.00px" viewBox="0 0 1024 1024" version="1.1" xmlns="http://www.w3.org/2000/svg"><path d="M816 150.4h-608c-60.8 0-115.2 54.4-115.2 118.4v409.6c0 64 51.2 118.4 115.2 118.4h201.6l48 51.2c16 16 35.2 25.6 57.6 25.6s41.6-9.6 57.6-25.6l48-48h201.6c64 0 115.2-54.4 115.2-118.4V268.8c-6.4-64-57.6-118.4-121.6-118.4z m51.2 528c0 28.8-22.4 54.4-51.2 54.4h-214.4c-9.6 0-16 3.2-22.4 9.6L524.8 800c-3.2 3.2-16 6.4-25.6 0l-57.6-60.8c-6.4-6.4-16-9.6-22.4-9.6H208c-25.6 0-51.2-25.6-51.2-54.4V268.8c0-28.8 22.4-54.4 51.2-54.4h611.2c25.6 0 51.2 25.6 51.2 54.4v409.6zM332.8 412.8c-28.8 0-54.4 25.6-54.4 54.4 0 28.8 25.6 54.4 54.4 54.4 19.2 0 38.4-9.6 48-28.8 9.6-16 9.6-38.4 0-54.4s-28.8-25.6-48-25.6zM515.2 412.8c-28.8 0-54.4 25.6-54.4 54.4 0 28.8 25.6 54.4 54.4 54.4 19.2 0 38.4-9.6 48-28.8 9.6-16 9.6-38.4 0-54.4s-28.8-25.6-48-25.6zM697.6 412.8c-28.8 0-54.4 25.6-54.4 54.4 0 28.8 25.6 54.4 54.4 54.4 19.2 0 38.4-9.6 48-28.8 9.6-16 9.6-38.4 0-54.4s-25.6-25.6-48-25.6z" /></svg>